{
    "asset" : {
        "generator" : "Khronos glTF Blender I/O v3.3.32",
        "version" : "2.0"
    },
    "scene" : 0,
    "scenes" : [
        {
            "name" : "Scene",
            "nodes" : [
                0,
                2,
                3
            ]
        }
    ],
    "nodes" : [
        {
            "mesh" : 0,
            "name" : "leaves"
        },
        {
            "mesh" : 1,
            "name" : "leaves.001"
        },
        {
            "children" : [
                1
            ],
            "mesh" : 2,
            "name" : "tree"
        },
        {
            "name" : "Curves"
        }
    ],
    "meshes" : [
        {
            "name" : "leaves",
            "primitives" : [
                {
                    "attributes" : {
                        "POSITION" : 0,
                        "NORMAL" : 1
                    },
                    "indices" : 2
                }
            ]
        },
        {
            "name" : "leaves.002",
            "primitives" : [
                {
                    "attributes" : {
                        "POSITION" : 3,
                        "NORMAL" : 4,
                        "TEXCOORD_0" : 5
                    },
                    "indices" : 6
                }
            ]
        },
        {
            "name" : "tree.006",
            "primitives" : [
                {
                    "attributes" : {
                        "POSITION" : 7,
                        "NORMAL" : 8,
                        "TEXCOORD_0" : 9
                    },
                    "indices" : 10
                }
            ]
        }
    ],
    "accessors" : [
        {
            "bufferView" : 0,
            "componentType" : 5126,
            "count" : 5388,
            "max" : [
                6.74097204208374,
                16.026893615722656,
                5.8562445640563965
            ],
            "min" : [
                -6.39835262298584,
                3.354692220687866,
                -6.054243564605713
            ],
            "type" : "VEC3"
        },
        {
            "bufferView" : 1,
            "componentType" : 5126,
            "count" : 5388,
            "type" : "VEC3"
        },
        {
            "bufferView" : 2,
            "componentType" : 5123,
            "count" : 8082,
            "type" : "SCALAR"
        },
        {
            "bufferView" : 3,
            "componentType" : 5126,
            "count" : 2800,
            "max" : [
                3.9664506912231445,
                17.473752975463867,
                4.014476776123047
            ],
            "min" : [
                -4.052112102508545,
                6.104766845703125,
                -4.15069055557251
            ],
            "type" : "VEC3"
        },
        {
            "bufferView" : 4,
            "componentType" : 5126,
            "count" : 2800,
            "type" : "VEC3"
        },
        {
            "bufferView" : 5,
            "componentType" : 5126,
            "count" : 2800,
            "type" : "VEC2"
        },
        {
            "bufferView" : 6,
            "componentType" : 5123,
            "count" : 4200,
            "type" : "SCALAR"
        },
        {
            "bufferView" : 7,
            "componentType" : 5126,
            "count" : 3315,
            "max" : [
                3.8704380989074707,
                17.31098175048828,
                3.9088778495788574
            ],
            "min" : [
                -3.88057541847229,
                0,
                -4.045105457305908
            ],
            "type" : "VEC3"
        },
        {
            "bufferView" : 8,
            "componentType" : 5126,
            "count" : 3315,
            "type" : "VEC3"
        },
        {
            "bufferView" : 9,
            "componentType" : 5126,
            "count" : 3315,
            "type" : "VEC2"
        },
        {
            "bufferView" : 10,
            "componentType" : 5123,
            "count" : 15168,
            "type" : "SCALAR"
        }
    ],
    "bufferViews" : [
        {
            "buffer" : 0,
            "byteLength" : 64656,
            "byteOffset" : 0,
            "target" : 34962
        },
        {
            "buffer" : 0,
            "byteLength" : 64656,
            "byteOffset" : 64656,
            "target" : 34962
        },
        {
            "buffer" : 0,
            "byteLength" : 16164,
            "byteOffset" : 129312,
            "target" : 34963
        },
        {
            "buffer" : 0,
            "byteLength" : 33600,
            "byteOffset" : 145476,
            "target" : 34962
        },
        {
            "buffer" : 0,
            "byteLength" : 33600,
            "byteOffset" : 179076,
            "target" : 34962
        },
        {
            "buffer" : 0,
            "byteLength" : 22400,
            "byteOffset" : 212676,
            "target" : 34962
        },
        {
            "buffer" : 0,
            "byteLength" : 8400,
            "byteOffset" : 235076,
            "target" : 34963
        },
        {
            "buffer" : 0,
            "byteLength" : 39780,
            "byteOffset" : 243476,
            "target" : 34962
        },
        {
            "buffer" : 0,
            "byteLength" : 39780,
            "byteOffset" : 283256,
            "target" : 34962
        },
        {
            "buffer" : 0,
            "byteLength" : 26520,
            "byteOffset" : 323036,
            "target" : 34962
        },
        {
            "buffer" : 0,
            "byteLength" : 30336,
            "byteOffset" : 349556,
            "target" : 34963
        }
    ],
    "buffers" : [
        {
            "byteLength" : 379892,
            "uri" : "data:application/octet-stream;base64,"
        }
    ]
}
